<?xml version="1.0" standalone="no"?>
<!DOCTYPE svg PUBLIC "-//W3C//DTD SVG 20010904//EN"
 "http://www.w3.org/TR/2001/REC-SVG-20010904/DTD/svg10.dtd">
<svg version="1.0" xmlns="http://www.w3.org/2000/svg"
 width="265.000000pt" height="265.000000pt" viewBox="0 0 265.000000 265.000000"
 preserveAspectRatio="xMidYMid meet">
<metadata>
Created by potrace 1.14, written by Peter Selinger 2001-2017
</metadata>
<g transform="translate(0.000000,265.000000) scale(0.100000,-0.100000)"
fill="#000000" stroke="none">
<path d="M0 1325 l0 -1325 1325 0 1325 0 0 1325 0 1325 -1325 0 -1325 0 0
-1325z m1384 469 c22 -10 53 -36 70 -57 25 -31 31 -49 34 -102 l4 -65 -55 0
-54 0 -7 41 c-12 77 -83 114 -137 70 -18 -14 -23 -31 -27 -79 -6 -85 8 -103
104 -139 89 -33 148 -79 165 -130 19 -58 7 -221 -20 -269 -29 -52 -74 -81
-136 -89 -66 -9 -126 8 -172 48 -44 39 -63 82 -63 142 l0 46 58 -3 57 -3 6
-44 c3 -26 13 -49 24 -57 22 -16 78 -18 105 -4 22 12 40 68 40 125 0 67 -26
95 -128 139 -135 57 -155 87 -155 228 1 70 5 93 21 120 62 100 164 131 266 82z
m-594 -334 c0 -271 3 -352 13 -355 6 -3 59 -6 117 -7 l105 -3 3 -57 3 -58
-176 0 -175 0 0 415 0 415 55 0 55 0 0 -350z m946 225 c110 -309 125 -350 134
-359 7 -7 10 79 10 237 l0 247 55 0 55 0 0 -415 0 -415 -53 0 -54 0 -26 68
c-14 37 -46 123 -71 192 -24 69 -54 150 -65 180 l-20 55 -2 -215 c-1 -118 -2
-228 -3 -245 -1 -29 -2 -30 -58 -33 l-58 -3 0 416 0 416 56 -3 57 -3 43 -120z"/>
</g>
</svg>
