<svg width="80" height="26" viewBox="0 0 80 26" fill="none" xmlns="http://www.w3.org/2000/svg" data-v-5ab4a661="" data-v-3507ac93=""><path fill-rule="evenodd" clip-rule="evenodd" d="M0 0.142853H8.57143V5.85714H11.4286V3H14.2857V0.142853H22.8571V8.71428H20V11.5714H17.1429V14.4286H20V17.2857H22.8571V25.8571H14.2857V23H11.4286V20.1429H8.57143V25.8571H0V0.142853ZM57.1429 0.142853H65.7143V5.85714H68.5714V3H71.4286V0.142853H80V8.71428H77.1429V11.5714H74.2857V14.4286H77.1429V17.2857H80V25.8571H71.4286V23H68.5714V20.1429H65.7143V25.8571H57.1429V0.142853ZM25.7143 0.142853H34.2857V25.8571H25.7143V0.142853ZM45.7143 0.142853H40V3H37.1429V23H40V25.8571H45.7143H54.2857V17.2857H45.7143V8.71428H54.2857V0.142853H45.7143Z" fill="white" data-v-5ab4a661=""></path></svg>